# xmcd
#
# Track frame offsets: 
#        150
#        16218
#        32010
#        54020
#        76128
#        96497
#        121525
#        140461
#        157927
#        171396
#        196151
#        219313
#
# Disc length: 3261 seconds
#
# Revision: 0
# Processed by: cddbd v1.5.2PL0 Copyright (c) Steve Scherf et al.
# Submitted via: ExactAudioCopy v0.99pb5
#
DISCID=8b0cbb0c
DTITLE=The Bangkok Acoustic - เพ้อ
DYEAR=2004
DGENRE=Folk
TTITLE0=กุลสตรีไทย
TTITLE1=สร้อยแสงแดง
TTITLE2=ละเมอสาว
TTITLE3=ค้างคาวกินกล้วย
TTITLE4=เพ้อ
TTITLE5=ลาวเจริญศรี
TTITLE6=เขมรไทยโยค
TTITLE7=เกี่ยวข้าว
TTITLE8=สุขใจ
TTITLE9=Sounthern Funk
TTITLE10=นกขมิ้น
TTITLE11=Beat of Siam
EXTD=
EXTT0=
EXTT1=
EXTT2=
EXTT3=
EXTT4=
EXTT5=
EXTT6=
EXTT7=
EXTT8=
EXTT9=
EXTT10=
EXTT11=
PLAYORDER=
